# xmcd CD database file
#
# Track frame offsets:
#	150
#	23071
#	44573
#	67110
#	88940
#	111045
#	138959
#	155116
#	178197
#
# Disc length: 2691 seconds
#
# Revision: 0
# Processed by: cddbd v1.5.2PL0 Copyright (c) Steve Scherf et al.
# Submitted via: CDex 1.81
#
DISCID=800a8109
DTITLE=Miyuki Fujino - Lady Sax
DYEAR=2015
DGENRE=Jazz
TTITLE0=Party Party Party
TTITLE1=Lady Sax
TTITLE2=Calling
TTITLE3=Turn TheNight
TTITLE4=Saving All My Love For You
TTITLE5=Funny Story
TTITLE6=You Are Here
TTITLE7=Careless Whisper
TTITLE8=Come To My Life
EXTD=YEAR: 2015
EXTT0=
EXTT1=
EXTT2=
EXTT3=
EXTT4=
EXTT5=
EXTT6=
EXTT7=
EXTT8=
PLAYORDER=
